M48
; DRILL file {KiCad (6.0.6-0)} date Wednesday, 17 August 2022 at 04:52:17
; FORMAT={-:-/ absolute / inch / decimal}
; #@! TF.CreationDate,2022-08-17T04:52:17+09:00
; #@! TF.GenerationSoftware,Kicad,Pcbnew,(6.0.6-0)
; #@! TF.FileFunction,MixedPlating,1,2
FMAT,2
INCH
; #@! TA.AperFunction,Plated,PTH,ViaDrill
T1C0.0157
%
G90
G05
T1
X4.1087Y-4.3775
X4.2861Y-4.3699
X4.4721Y-4.345
X4.6087Y-3.677
X4.8191Y-3.7725
X5.1317Y-4.1746
X5.1581Y-4.204
X5.2012Y-3.6769
X5.2019Y-4.2856
X5.2377Y-4.3809
X5.2555Y-4.2308
X5.2976Y-4.18
X5.337Y-4.0516
X5.3451Y-4.1389
X5.3788Y-4.1095
X5.416Y-4.3874
X5.4517Y-3.6383
X5.4851Y-4.2921
X5.486Y-3.8558
X5.5637Y-4.3775
X5.6391Y-4.229
X5.6695Y-4.18
X5.721Y-3.7637
X5.7629Y-3.6354
X5.8925Y-3.9302
X5.9188Y-3.6355
X5.9333Y-4.3631
X5.9523Y-3.69
X5.963Y-4.0807
X6.0123Y-3.8558
X6.0574Y-3.9758
X6.0839Y-3.8949
X6.0914Y-3.8076
X6.1143Y-3.9228
X6.1617Y-4.1041
X6.1776Y-3.7637
X6.2082Y-3.8827
X6.2163Y-3.6114
X6.2421Y-3.7501
X6.2943Y-3.6625
X6.3931Y-4.3629
T0
M30
