G04 #@! TF.GenerationSoftware,KiCad,Pcbnew,(6.0.6-0)*
G04 #@! TF.CreationDate,2022-08-17T04:52:13+09:00*
G04 #@! TF.ProjectId,PENGO2JAMMA,50454e47-4f32-44a4-914d-4d412e6b6963,rev?*
G04 #@! TF.SameCoordinates,Original*
G04 #@! TF.FileFunction,Copper,L1,Top*
G04 #@! TF.FilePolarity,Positive*
%FSLAX46Y46*%
G04 Gerber Fmt 4.6, Leading zero omitted, Abs format (unit mm)*
G04 Created by KiCad (PCBNEW (6.0.6-0)) date 2022-08-17 04:52:13*
%MOMM*%
%LPD*%
G01*
G04 APERTURE LIST*
G04 #@! TA.AperFunction,SMDPad,CuDef*
%ADD10R,1.980000X9.900000*%
G04 #@! TD*
G04 #@! TA.AperFunction,ViaPad*
%ADD11C,0.800000*%
G04 #@! TD*
G04 #@! TA.AperFunction,Conductor*
%ADD12C,1.000000*%
G04 #@! TD*
G04 #@! TA.AperFunction,Conductor*
%ADD13C,0.500000*%
G04 #@! TD*
G04 #@! TA.AperFunction,Conductor*
%ADD14C,0.250000*%
G04 #@! TD*
G04 APERTURE END LIST*
G36*
X184580659Y-99056708D02*
G01*
X184681935Y-98844525D01*
X184791966Y-98625365D01*
X184950817Y-98308225D01*
X185083660Y-98031445D01*
X185194876Y-97784410D01*
X185288849Y-97556507D01*
X185369960Y-97337122D01*
X185442593Y-97115641D01*
X185509302Y-96888003D01*
X185566414Y-96688708D01*
X185621106Y-96514198D01*
X185677521Y-96357743D01*
X185739800Y-96212614D01*
X185812086Y-96072080D01*
X185898519Y-95929412D01*
X186003242Y-95777881D01*
X186130395Y-95610756D01*
X186284122Y-95421308D01*
X186468563Y-95202807D01*
X186687860Y-94948523D01*
X186739540Y-94889014D01*
X186912760Y-94688923D01*
X187051088Y-94526533D01*
X187159126Y-94395246D01*
X187241473Y-94288466D01*
X187302732Y-94199597D01*
X187347501Y-94122040D01*
X187380383Y-94049199D01*
X187405977Y-93974477D01*
X187425045Y-93906063D01*
X187440179Y-93845036D01*
X187451259Y-93787386D01*
X187458233Y-93724897D01*
X187461049Y-93649353D01*
X187459657Y-93552536D01*
X187454005Y-93426231D01*
X187444043Y-93262222D01*
X187429718Y-93052293D01*
X187418745Y-92897184D01*
X187399745Y-92594405D01*
X187384235Y-92273879D01*
X187372226Y-91942891D01*
X187363728Y-91608728D01*
X187358752Y-91278674D01*
X187357306Y-90960015D01*
X187359403Y-90660037D01*
X187365052Y-90386025D01*
X187374262Y-90145266D01*
X187387046Y-89945043D01*
X187403412Y-89792644D01*
X187414279Y-89730284D01*
X187523848Y-89346213D01*
X187678064Y-88999516D01*
X187875387Y-88691896D01*
X188114278Y-88425056D01*
X188393196Y-88200698D01*
X188710601Y-88020526D01*
X189064953Y-87886243D01*
X189088043Y-87879484D01*
X189188850Y-87852965D01*
X189285738Y-87834403D01*
X189392811Y-87822468D01*
X189524169Y-87815830D01*
X189693916Y-87813159D01*
X189794005Y-87812896D01*
X189988779Y-87814162D01*
X190139004Y-87818906D01*
X190259443Y-87828519D01*
X190364854Y-87844389D01*
X190470001Y-87867905D01*
X190520991Y-87881305D01*
X190915102Y-88017583D01*
X191276631Y-88203189D01*
X191604156Y-88436939D01*
X191896250Y-88717651D01*
X192151489Y-89044142D01*
X192368013Y-89414364D01*
X192472490Y-89645076D01*
X192553807Y-89879702D01*
X192613966Y-90128843D01*
X192654970Y-90403097D01*
X192678823Y-90713066D01*
X192687529Y-91069349D01*
X192687640Y-91105720D01*
X192692102Y-91447385D01*
X192704020Y-91775365D01*
X192722706Y-92080025D01*
X192747472Y-92351731D01*
X192777632Y-92580851D01*
X192802446Y-92714705D01*
X192920265Y-93130149D01*
X193094560Y-93557781D01*
X193324179Y-93995615D01*
X193607969Y-94441665D01*
X193944778Y-94893943D01*
X194327870Y-95344285D01*
X194533431Y-95580848D01*
X194704155Y-95799676D01*
X194852431Y-96018969D01*
X194990649Y-96256933D01*
X195118688Y-96506187D01*
X195351079Y-97030555D01*
X195545138Y-97580792D01*
X195704321Y-98167259D01*
X195765887Y-98447668D01*
X195808393Y-98705742D01*
X195835988Y-98982570D01*
X195848392Y-99262845D01*
X195845325Y-99531258D01*
X195826505Y-99772502D01*
X195793658Y-99963079D01*
X195746149Y-100155407D01*
X195708090Y-100296479D01*
X195676998Y-100393174D01*
X195650386Y-100452370D01*
X195625769Y-100480944D01*
X195604574Y-100486294D01*
X195560414Y-100509720D01*
X195527241Y-100571374D01*
X195440485Y-100753084D01*
X195305198Y-100936403D01*
X195131083Y-101111525D01*
X194927848Y-101268645D01*
X194712737Y-101394245D01*
X194588523Y-101454022D01*
X194495489Y-101491296D01*
X194412375Y-101511348D01*
X194317918Y-101519456D01*
X194202668Y-101520906D01*
X194067252Y-101518234D01*
X193968171Y-101507075D01*
X193882533Y-101482719D01*
X193787447Y-101440454D01*
X193770173Y-101431888D01*
X193617157Y-101334525D01*
X193507725Y-101213697D01*
X193438600Y-101062445D01*
X193406506Y-100873808D01*
X193406920Y-100660392D01*
X193416279Y-100541430D01*
X193428280Y-100441108D01*
X193440622Y-100377848D01*
X193443007Y-100371082D01*
X193447650Y-100331544D01*
X193406638Y-100318968D01*
X193395019Y-100318700D01*
X193337865Y-100314812D01*
X193300773Y-100297676D01*
X193281258Y-100257755D01*
X193276831Y-100185514D01*
X193285008Y-100071415D01*
X193298418Y-99948243D01*
X193347416Y-99369817D01*
X193358059Y-98826459D01*
X193330518Y-98320640D01*
X193264968Y-97854832D01*
X193161582Y-97431506D01*
X193110990Y-97278308D01*
X193007432Y-97024525D01*
X192877991Y-96764017D01*
X192731952Y-96512664D01*
X192578600Y-96286349D01*
X192427219Y-96100952D01*
X192415066Y-96087934D01*
X192367664Y-96026911D01*
X192330725Y-95949290D01*
X192298267Y-95839776D01*
X192272412Y-95723369D01*
X192167783Y-95315188D01*
X192016442Y-94886498D01*
X191816626Y-94432412D01*
X191777822Y-94352570D01*
X191688880Y-94169928D01*
X191595873Y-93975536D01*
X191507738Y-93788293D01*
X191433415Y-93627096D01*
X191407969Y-93570590D01*
X191287241Y-93299675D01*
X192051724Y-93299675D01*
X192055081Y-93309882D01*
X192094483Y-93397818D01*
X192152816Y-93502253D01*
X192220148Y-93608122D01*
X192286548Y-93700355D01*
X192342083Y-93763884D01*
X192366318Y-93782077D01*
X192453771Y-93795587D01*
X192523360Y-93756298D01*
X192554269Y-93699942D01*
X192558973Y-93610924D01*
X192513771Y-93521732D01*
X192415679Y-93428241D01*
X192301059Y-93350007D01*
X192175452Y-93278682D01*
X192092870Y-93246656D01*
X192052048Y-93253722D01*
X192051724Y-93299675D01*
X191287241Y-93299675D01*
X191263414Y-93246207D01*
X191322552Y-92951210D01*
X191349739Y-92805885D01*
X191363153Y-92702508D01*
X191363701Y-92625527D01*
X191352292Y-92559390D01*
X191346624Y-92539172D01*
X191301112Y-92442738D01*
X191234194Y-92362345D01*
X191161292Y-92314285D01*
X191127291Y-92307472D01*
X191120217Y-92285706D01*
X191147310Y-92225548D01*
X191189669Y-92157566D01*
X191265329Y-92031562D01*
X191316642Y-91907459D01*
X191349870Y-91765250D01*
X191371275Y-91584928D01*
X191372141Y-91574618D01*
X191371249Y-91291637D01*
X191321310Y-91031123D01*
X191224075Y-90798937D01*
X191081336Y-90600985D01*
X190939228Y-90467942D01*
X190797983Y-90384469D01*
X190641937Y-90343137D01*
X190520991Y-90335322D01*
X190395688Y-90340259D01*
X190301033Y-90361236D01*
X190209072Y-90404939D01*
X190194589Y-90413388D01*
X189996080Y-90562601D01*
X189845169Y-90744913D01*
X189744569Y-90956124D01*
X189697817Y-91182493D01*
X189692715Y-91277633D01*
X189700710Y-91356390D01*
X189726677Y-91440427D01*
X189775491Y-91551408D01*
X189785694Y-91573001D01*
X189889214Y-91790986D01*
X189737755Y-91738632D01*
X189553987Y-91697653D01*
X189343228Y-91686826D01*
X189129556Y-91706074D01*
X188978918Y-91741112D01*
X188796511Y-91797884D01*
X188842747Y-91726276D01*
X188895124Y-91645185D01*
X188938986Y-91577308D01*
X188964647Y-91528709D01*
X188974646Y-91475334D01*
X188969932Y-91398907D01*
X188953710Y-91294206D01*
X188897154Y-91079161D01*
X188807384Y-90878573D01*
X188692002Y-90704710D01*
X188558611Y-90569839D01*
X188467617Y-90509816D01*
X188339415Y-90471818D01*
X188195444Y-90473806D01*
X188062340Y-90514244D01*
X188026144Y-90535222D01*
X187900263Y-90644665D01*
X187811680Y-90781827D01*
X187757329Y-90954220D01*
X187734146Y-91169353D01*
X187732821Y-91254084D01*
X187744936Y-91544478D01*
X187778480Y-91798273D01*
X187832166Y-92010218D01*
X187904703Y-92175062D01*
X187984163Y-92277991D01*
X188053754Y-92343369D01*
X187924997Y-92501447D01*
X187821757Y-92653715D01*
X187763357Y-92807198D01*
X187759838Y-92822191D01*
X187738410Y-92941738D01*
X187742282Y-93017433D01*
X187776070Y-93061050D01*
X187844393Y-93084361D01*
X187864026Y-93087854D01*
X187941769Y-93113929D01*
X188044510Y-93165998D01*
X188150801Y-93233106D01*
X188156921Y-93237441D01*
X188310559Y-93340428D01*
X188442504Y-93409602D01*
X188573744Y-93452384D01*
X188725268Y-93476197D01*
X188859309Y-93485792D01*
X189148893Y-93479539D01*
X189456629Y-93435691D01*
X189758342Y-93358249D01*
X189874338Y-93317849D01*
X190034543Y-93243777D01*
X190220919Y-93135562D01*
X190419121Y-93002425D01*
X190614806Y-92853589D01*
X190678501Y-92800806D01*
X190772928Y-92725081D01*
X190854826Y-92667288D01*
X190910851Y-92636557D01*
X190922433Y-92633874D01*
X190954343Y-92645955D01*
X190933932Y-92680914D01*
X190862793Y-92736823D01*
X190807808Y-92772587D01*
X190723546Y-92829522D01*
X190615397Y-92908665D01*
X190504978Y-92994133D01*
X190491318Y-93005094D01*
X190211836Y-93204034D01*
X189932790Y-93348504D01*
X189794005Y-93400689D01*
X189611129Y-93451458D01*
X189396159Y-93495988D01*
X189173522Y-93530261D01*
X188967645Y-93550259D01*
X188863724Y-93553734D01*
X188743676Y-93558600D01*
X188633772Y-93571273D01*
X188566135Y-93586613D01*
X188471816Y-93619493D01*
X188550406Y-93692328D01*
X188758815Y-93848600D01*
X188997516Y-93957843D01*
X189270060Y-94021314D01*
X189533253Y-94040238D01*
X189836286Y-94043336D01*
X189681618Y-94096837D01*
X189564517Y-94128959D01*
X189424543Y-94155745D01*
X189328984Y-94167710D01*
X189108398Y-94168265D01*
X188911385Y-94126058D01*
X188730033Y-94037148D01*
X188556432Y-93897593D01*
X188382669Y-93703451D01*
X188373370Y-93691648D01*
X188239840Y-93524227D01*
X188138132Y-93403717D01*
X188066425Y-93328139D01*
X188022897Y-93295518D01*
X188009085Y-93296170D01*
X188001357Y-93330231D01*
X187991669Y-93411940D01*
X187981171Y-93529679D01*
X187971009Y-93671831D01*
X187969379Y-93697905D01*
X187957324Y-93863135D01*
X187940583Y-93999567D01*
X187914586Y-94118815D01*
X187874762Y-94232492D01*
X187816543Y-94352212D01*
X187735358Y-94489588D01*
X187626639Y-94656234D01*
X187544486Y-94777751D01*
X187377953Y-95031108D01*
X187248184Y-95250242D01*
X187151467Y-95444333D01*
X187084090Y-95622559D01*
X187042342Y-95794099D01*
X187022512Y-95968133D01*
X187019589Y-96075854D01*
X187018525Y-96180644D01*
X187011539Y-96258419D01*
X186992944Y-96326117D01*
X186957049Y-96400676D01*
X186898167Y-96499036D01*
X186853711Y-96569749D01*
X186581644Y-97044986D01*
X186344723Y-97549096D01*
X186151438Y-98063054D01*
X186074246Y-98316234D01*
X185991391Y-98639383D01*
X185934060Y-98933787D01*
X185898900Y-99222545D01*
X185882555Y-99528759D01*
X185880615Y-99649656D01*
X185877183Y-100092892D01*
X186233258Y-100416232D01*
X186363975Y-100532302D01*
X186528596Y-100674434D01*
X186714440Y-100831916D01*
X186908832Y-100994036D01*
X187099091Y-101150084D01*
X187164756Y-101203215D01*
X187330975Y-101339220D01*
X187487793Y-101471400D01*
X187627182Y-101592688D01*
X187741114Y-101696015D01*
X187821559Y-101774312D01*
X187851872Y-101808160D01*
X187973335Y-101994462D01*
X188040494Y-102174615D01*
X188053402Y-102344596D01*
X188012116Y-102500381D01*
X187916689Y-102637947D01*
X187839673Y-102705488D01*
X187771311Y-102742346D01*
X187677761Y-102763815D01*
X187544778Y-102773727D01*
X187428984Y-102773810D01*
X187329551Y-102766794D01*
X187267736Y-102754194D01*
X187267185Y-102753963D01*
X187235022Y-102735124D01*
X187198668Y-102701662D01*
X187154296Y-102647994D01*
X187098081Y-102568536D01*
X187026199Y-102457706D01*
X186934824Y-102309921D01*
X186820130Y-102119597D01*
X186737445Y-101980836D01*
X186551661Y-101673633D01*
X186367369Y-101379233D01*
X186188319Y-101103064D01*
X186018263Y-100850552D01*
X185860953Y-100627123D01*
X185720138Y-100438204D01*
X185599571Y-100289220D01*
X185503003Y-100185599D01*
X185485030Y-100169146D01*
X185312733Y-100047757D01*
X185136577Y-99979190D01*
X184963111Y-99963840D01*
X184798885Y-100002104D01*
X184650447Y-100094378D01*
X184625470Y-100117178D01*
X184531000Y-100208291D01*
X184486057Y-100048594D01*
X184446987Y-99898180D01*
X184422294Y-99765332D01*
X184413868Y-99641255D01*
X184423601Y-99517151D01*
X184453383Y-99384224D01*
X184463429Y-99354984D01*
X185446926Y-99354984D01*
X185457362Y-99406713D01*
X185481095Y-99467526D01*
X185506765Y-99511001D01*
X185517013Y-99517986D01*
X185519306Y-99492460D01*
X185512871Y-99430827D01*
X185512548Y-99428604D01*
X185495604Y-99363477D01*
X185472853Y-99324106D01*
X185453597Y-99320931D01*
X185446926Y-99354984D01*
X184463429Y-99354984D01*
X184505106Y-99233675D01*
X184580659Y-99056708D01*
G37*
G36*
X192525495Y-102387949D02*
G01*
X192531742Y-102507592D01*
X192533061Y-102666345D01*
X192529601Y-102844190D01*
X192521509Y-103021111D01*
X192520692Y-103034224D01*
X192502258Y-103388440D01*
X192495773Y-103687276D01*
X192501336Y-103933500D01*
X192519040Y-104129883D01*
X192548983Y-104279192D01*
X192565548Y-104329360D01*
X192676683Y-104538639D01*
X192835357Y-104713748D01*
X193038317Y-104851208D01*
X193067490Y-104865987D01*
X193154951Y-104907294D01*
X193227113Y-104934827D01*
X193299901Y-104951372D01*
X193389240Y-104959715D01*
X193511056Y-104962643D01*
X193621809Y-104962963D01*
X193773575Y-104962328D01*
X193882572Y-104958294D01*
X193965379Y-104947666D01*
X194038571Y-104927249D01*
X194118727Y-104893846D01*
X194212416Y-104849121D01*
X194319944Y-104790971D01*
X194460002Y-104706579D01*
X194617686Y-104605374D01*
X194778095Y-104496781D01*
X194852319Y-104444344D01*
X195042842Y-104309362D01*
X195203875Y-104200867D01*
X195348463Y-104112208D01*
X195489649Y-104036733D01*
X195640477Y-103967791D01*
X195813993Y-103898731D01*
X196023240Y-103822902D01*
X196173678Y-103770592D01*
X196448311Y-103672930D01*
X196673192Y-103585925D01*
X196856229Y-103506175D01*
X197005324Y-103430275D01*
X197108374Y-103368147D01*
X197112883Y-103370478D01*
X197080760Y-103405287D01*
X197025094Y-103459199D01*
X196941119Y-103523866D01*
X196805298Y-103609395D01*
X196620651Y-103714025D01*
X196390196Y-103835995D01*
X196298659Y-103882768D01*
X196043543Y-104013153D01*
X195831536Y-104125146D01*
X195652197Y-104225935D01*
X195495083Y-104322705D01*
X195349754Y-104422645D01*
X195205767Y-104532941D01*
X195052682Y-104660780D01*
X194880057Y-104813350D01*
X194677449Y-104997836D01*
X194673822Y-105001165D01*
X194459863Y-105189480D01*
X194272221Y-105335207D01*
X194101638Y-105443257D01*
X193938854Y-105518542D01*
X193774611Y-105565973D01*
X193599650Y-105590463D01*
X193557612Y-105593328D01*
X193293321Y-105586372D01*
X193036864Y-105538245D01*
X192797933Y-105453271D01*
X192586220Y-105335774D01*
X192411418Y-105190077D01*
X192286529Y-105026303D01*
X192240937Y-104992910D01*
X192143367Y-104953728D01*
X192000736Y-104910274D01*
X191819958Y-104864062D01*
X191607951Y-104816609D01*
X191371630Y-104769429D01*
X191117913Y-104724040D01*
X190853715Y-104681956D01*
X190585952Y-104644692D01*
X190491318Y-104632906D01*
X190218055Y-104606308D01*
X189923007Y-104588749D01*
X189616192Y-104579958D01*
X189307628Y-104579660D01*
X189007332Y-104587585D01*
X188725323Y-104603458D01*
X188471618Y-104627008D01*
X188256236Y-104657961D01*
X188089195Y-104696046D01*
X188081057Y-104698512D01*
X188043080Y-104731919D01*
X187992833Y-104804288D01*
X187941285Y-104899769D01*
X187833850Y-105073529D01*
X187685865Y-105242528D01*
X187514817Y-105389597D01*
X187338191Y-105497568D01*
X187327249Y-105502680D01*
X187172764Y-105553128D01*
X186984839Y-105584386D01*
X186786696Y-105594904D01*
X186601559Y-105583135D01*
X186485477Y-105558830D01*
X186393101Y-105529546D01*
X186297141Y-105496089D01*
X186185351Y-105453803D01*
X186045486Y-105398031D01*
X185865299Y-105324118D01*
X185832673Y-105310614D01*
X185693660Y-105255184D01*
X185552434Y-105203889D01*
X185400263Y-105154208D01*
X185228415Y-105103619D01*
X185028158Y-105049600D01*
X184790758Y-104989628D01*
X184507484Y-104921183D01*
X184378702Y-104890708D01*
X184085880Y-104819062D01*
X183781615Y-104739800D01*
X183479726Y-104656826D01*
X183194034Y-104574041D01*
X182938361Y-104495348D01*
X182726526Y-104424650D01*
X182720458Y-104422503D01*
X182620237Y-104375750D01*
X182530485Y-104315961D01*
X182511102Y-104298767D01*
X182472118Y-104258088D01*
X182468998Y-104248758D01*
X182477991Y-104254653D01*
X182602570Y-104326476D01*
X182777290Y-104399923D01*
X182993112Y-104472162D01*
X183241000Y-104540359D01*
X183511915Y-104601681D01*
X183696225Y-104636538D01*
X183796232Y-104655519D01*
X183907303Y-104678653D01*
X183924092Y-104682360D01*
X184014204Y-104699898D01*
X184149258Y-104722920D01*
X184315349Y-104749251D01*
X184498569Y-104776714D01*
X184685012Y-104803134D01*
X184764449Y-104813862D01*
X185192242Y-104887556D01*
X185636714Y-104995174D01*
X186071276Y-105130025D01*
X186188748Y-105172194D01*
X186428594Y-105238941D01*
X186664329Y-105262718D01*
X186883869Y-105243432D01*
X187075127Y-105180990D01*
X187078935Y-105179125D01*
X187305464Y-105038413D01*
X187493440Y-104861574D01*
X187634577Y-104656614D01*
X187648862Y-104628706D01*
X187701114Y-104513147D01*
X187732518Y-104411999D01*
X187749273Y-104299284D01*
X187756531Y-104177379D01*
X187758650Y-104040478D01*
X187750024Y-103928584D01*
X187726823Y-103816139D01*
X187685215Y-103677588D01*
X187678594Y-103657355D01*
X187628716Y-103513434D01*
X187573695Y-103366541D01*
X187523381Y-103242694D01*
X187510908Y-103214430D01*
X187472299Y-103121515D01*
X187463821Y-103079239D01*
X187485586Y-103087654D01*
X187537708Y-103146813D01*
X187620301Y-103256767D01*
X187628890Y-103268680D01*
X187715756Y-103373746D01*
X187816888Y-103461139D01*
X187944664Y-103538982D01*
X188111460Y-103615395D01*
X188225649Y-103660259D01*
X188636972Y-103785000D01*
X189058526Y-103854549D01*
X189483519Y-103869261D01*
X189905161Y-103829492D01*
X190316661Y-103735599D01*
X190711229Y-103587936D01*
X190845214Y-103523027D01*
X191059312Y-103403049D01*
X191272188Y-103262967D01*
X191492189Y-103096329D01*
X191727663Y-102896683D01*
X191986956Y-102657577D01*
X192077878Y-102570168D01*
X192503845Y-102157094D01*
X192525495Y-102387949D01*
G37*
G36*
X189693406Y-91939135D02*
G01*
X189704987Y-91951397D01*
X189698592Y-91977070D01*
X189678816Y-91981070D01*
X189627549Y-91963659D01*
X189615968Y-91951397D01*
X189622362Y-91925724D01*
X189642138Y-91921724D01*
X189693406Y-91939135D01*
G37*
G36*
X188342821Y-91042763D02*
G01*
X188446435Y-91086922D01*
X188455551Y-91093688D01*
X188561041Y-91213310D01*
X188633641Y-91377308D01*
X188670487Y-91578868D01*
X188672655Y-91610159D01*
X188675286Y-91718013D01*
X188671068Y-91803262D01*
X188660917Y-91847902D01*
X188660546Y-91848406D01*
X188626657Y-91879141D01*
X188562335Y-91929235D01*
X188483102Y-91987516D01*
X188404481Y-92042811D01*
X188341993Y-92083949D01*
X188311324Y-92099762D01*
X188283020Y-92081891D01*
X188226194Y-92036351D01*
X188188043Y-92003579D01*
X188107803Y-91917397D01*
X188039826Y-91818380D01*
X188024461Y-91788451D01*
X187986553Y-91663203D01*
X187972448Y-91519635D01*
X187980195Y-91372770D01*
X188007840Y-91237634D01*
X188053431Y-91129251D01*
X188115014Y-91062646D01*
X188119104Y-91060345D01*
X188223875Y-91032929D01*
X188342821Y-91042763D01*
G37*
G36*
X190270274Y-91070020D02*
G01*
X190392678Y-90996080D01*
X190529883Y-90972302D01*
X190686191Y-90999379D01*
X190819561Y-91076274D01*
X190924216Y-91195994D01*
X190994382Y-91351550D01*
X191024282Y-91535947D01*
X191024942Y-91571594D01*
X191004461Y-91758364D01*
X190942506Y-91904904D01*
X190836678Y-92015651D01*
X190759383Y-92062670D01*
X190664792Y-92106615D01*
X190592580Y-92123969D01*
X190520519Y-92114404D01*
X190426382Y-92077594D01*
X190381747Y-92057116D01*
X190247733Y-91971769D01*
X190158045Y-91857648D01*
X190108806Y-91707692D01*
X190095877Y-91535892D01*
X190117442Y-91345681D01*
X190135961Y-91296842D01*
X190728702Y-91296842D01*
X190750241Y-91327059D01*
X190758374Y-91328266D01*
X190787276Y-91318142D01*
X190788047Y-91315181D01*
X190767254Y-91289847D01*
X190758374Y-91283757D01*
X190731031Y-91286110D01*
X190728702Y-91296842D01*
X190135961Y-91296842D01*
X190177052Y-91188472D01*
X190270274Y-91070020D01*
G37*
D10*
X88520000Y-116840000D03*
X92480000Y-116840000D03*
X96440000Y-116840000D03*
X100400000Y-116840000D03*
X104360000Y-116840000D03*
X108320000Y-116840000D03*
X112280000Y-116840000D03*
X116240000Y-116840000D03*
X120200000Y-116840000D03*
X124160000Y-116840000D03*
X128120000Y-116840000D03*
X132080000Y-116840000D03*
X136040000Y-116840000D03*
X140000000Y-116840000D03*
X143960000Y-116840000D03*
X147920000Y-116840000D03*
X151880000Y-116840000D03*
X155840000Y-116840000D03*
X159800000Y-116840000D03*
X163760000Y-116840000D03*
X167720000Y-116840000D03*
X171680000Y-116840000D03*
X175640000Y-116840000D03*
X179600000Y-116840000D03*
X183560000Y-116840000D03*
X187520000Y-116840000D03*
X191480000Y-116840000D03*
X195440000Y-116840000D03*
X88595000Y-87376000D03*
X92555000Y-87376000D03*
X96515000Y-87376000D03*
X100475000Y-87376000D03*
X104435000Y-87376000D03*
X108395000Y-87376000D03*
X112355000Y-87376000D03*
X116315000Y-87376000D03*
X120275000Y-87376000D03*
X124235000Y-87376000D03*
X128195000Y-87376000D03*
X132155000Y-87376000D03*
X136115000Y-87376000D03*
X140075000Y-87376000D03*
X144035000Y-87376000D03*
X147995000Y-87376000D03*
X151955000Y-87376000D03*
X155915000Y-87376000D03*
X159875000Y-87376000D03*
X163835000Y-87376000D03*
X167795000Y-87376000D03*
X171755000Y-87376000D03*
D11*
X156910300Y-95598100D03*
X145314200Y-95598100D03*
X151189400Y-93726700D03*
X141317700Y-111189700D03*
X150338000Y-92340800D03*
X137565600Y-111439700D03*
X113590800Y-110362600D03*
X130346300Y-106035900D03*
X143233300Y-107416200D03*
X157895000Y-91729700D03*
X154531900Y-98931000D03*
X162384500Y-110817400D03*
X133490800Y-107461300D03*
X139322600Y-109019300D03*
X139344800Y-97937300D03*
X152712300Y-97937300D03*
X134560000Y-106172100D03*
X144006200Y-106172100D03*
X138472600Y-92411700D03*
X154721300Y-96712600D03*
X151460000Y-103651000D03*
X159875000Y-93026300D03*
X158548700Y-95253400D03*
X108867900Y-110994900D03*
X104360000Y-111189700D03*
X157688000Y-98619900D03*
X155303600Y-99639200D03*
X122405100Y-95820700D03*
X131016700Y-106780400D03*
X146378200Y-92338000D03*
X133038800Y-111274000D03*
X136621300Y-104380700D03*
X117060300Y-93396600D03*
X132127000Y-108853100D03*
X132109400Y-93393800D03*
X135766100Y-105129100D03*
X135560300Y-102909800D03*
X153857100Y-100985500D03*
X156506100Y-104242900D03*
X149668900Y-99827000D03*
X150706400Y-110822200D03*
D12*
X156910300Y-95598100D02*
X145314200Y-95598100D01*
X193016700Y-108766400D02*
X195440000Y-111189700D01*
X183970300Y-108766400D02*
X193016700Y-108766400D01*
X175586100Y-100382200D02*
X183970300Y-108766400D01*
X175586100Y-91207100D02*
X175586100Y-100382200D01*
X171755000Y-87376000D02*
X175586100Y-91207100D01*
X195440000Y-116840000D02*
X195440000Y-111189700D01*
X144035000Y-87376000D02*
X144035000Y-93026300D01*
X140000000Y-116840000D02*
X140000000Y-111189700D01*
X141317700Y-111189700D02*
X140000000Y-111189700D01*
X144735400Y-93726700D02*
X151189400Y-93726700D01*
X144035000Y-93026300D02*
X144735400Y-93726700D01*
X167795000Y-87376000D02*
X167795000Y-93026300D01*
X191480000Y-116840000D02*
X191480000Y-111189700D01*
X184690200Y-111189700D02*
X191480000Y-111189700D01*
X167160900Y-93660400D02*
X184690200Y-111189700D01*
X167795000Y-93026300D02*
X167160900Y-93660400D01*
X158782300Y-93726700D02*
X151189400Y-93726700D01*
X159285500Y-94229900D02*
X158782300Y-93726700D01*
X166591400Y-94229900D02*
X159285500Y-94229900D01*
X167160900Y-93660400D02*
X166591400Y-94229900D01*
X104435000Y-87376000D02*
X100475000Y-87376000D01*
X100400000Y-116840000D02*
X100400000Y-111189700D01*
X100475000Y-111114700D02*
X100400000Y-111189700D01*
X100475000Y-87376000D02*
X100475000Y-111114700D01*
X96515000Y-111114700D02*
X96440000Y-111189700D01*
X96515000Y-87376000D02*
X96515000Y-111114700D01*
X96440000Y-116840000D02*
X96440000Y-111189700D01*
X92555000Y-111114700D02*
X92480000Y-111189700D01*
X92555000Y-87376000D02*
X92555000Y-111114700D01*
X92480000Y-116840000D02*
X92480000Y-111189700D01*
X88595000Y-111114700D02*
X88520000Y-111189700D01*
X88595000Y-87376000D02*
X88595000Y-111114700D01*
X88520000Y-116840000D02*
X88520000Y-111189700D01*
D13*
X136040000Y-116840000D02*
X136040000Y-111439700D01*
X137565600Y-111439700D02*
X136040000Y-111439700D01*
X151955000Y-87376000D02*
X151955000Y-92776300D01*
X150773500Y-92776300D02*
X150338000Y-92340800D01*
X151955000Y-92776300D02*
X150773500Y-92776300D01*
D14*
X115037900Y-110362600D02*
X116240000Y-111564700D01*
X113590800Y-110362600D02*
X115037900Y-110362600D01*
X116240000Y-116840000D02*
X116240000Y-111564700D01*
X133259000Y-106035900D02*
X130346300Y-106035900D01*
X134639300Y-107416200D02*
X133259000Y-106035900D01*
X143233300Y-107416200D02*
X134639300Y-107416200D01*
X157894900Y-91729700D02*
X157895000Y-91729700D01*
X157894900Y-91822300D02*
X157894900Y-91729700D01*
X157065900Y-92651300D02*
X157894900Y-91822300D01*
X155915000Y-92651300D02*
X157065900Y-92651300D01*
X155915000Y-87376000D02*
X155915000Y-92651300D01*
X163760000Y-116840000D02*
X163760000Y-111564700D01*
X163131800Y-111564700D02*
X163760000Y-111564700D01*
X162384500Y-110817400D02*
X163131800Y-111564700D01*
X128195000Y-87376000D02*
X128195000Y-92651300D01*
X134474700Y-98931000D02*
X154531900Y-98931000D01*
X128195000Y-92651300D02*
X134474700Y-98931000D01*
X135048800Y-109019300D02*
X139322600Y-109019300D01*
X133490800Y-107461300D02*
X135048800Y-109019300D01*
X139344800Y-97937300D02*
X152712300Y-97937300D01*
X134560000Y-106172100D02*
X144006200Y-106172100D01*
X154432200Y-96423500D02*
X154721300Y-96712600D01*
X142484400Y-96423500D02*
X154432200Y-96423500D01*
X138472600Y-92411700D02*
X142484400Y-96423500D01*
D13*
X124160000Y-116840000D02*
X124160000Y-111439700D01*
X151339400Y-103530400D02*
X151460000Y-103651000D01*
X136269100Y-103530400D02*
X151339400Y-103530400D01*
X136027800Y-103771700D02*
X136269100Y-103530400D01*
X131348400Y-103771700D02*
X136027800Y-103771700D01*
X124160000Y-110960100D02*
X131348400Y-103771700D01*
X124160000Y-111439700D02*
X124160000Y-110960100D01*
D12*
X159875000Y-87376000D02*
X159875000Y-92726200D01*
X159875000Y-92726200D02*
X159875000Y-93026300D01*
X108320000Y-116840000D02*
X108320000Y-111189700D01*
X108514800Y-110994900D02*
X108320000Y-111189700D01*
X108867900Y-110994900D02*
X108514800Y-110994900D01*
X158818200Y-95522900D02*
X158548700Y-95253400D01*
X158818200Y-99074400D02*
X158818200Y-95522900D01*
X155806500Y-102086100D02*
X158818200Y-99074400D01*
X153249700Y-102086100D02*
X155806500Y-102086100D01*
X153170600Y-102007000D02*
X153249700Y-102086100D01*
X148282600Y-102007000D02*
X153170600Y-102007000D01*
X148085000Y-101809400D02*
X148282600Y-102007000D01*
X118053400Y-101809400D02*
X148085000Y-101809400D01*
X108867900Y-110994900D02*
X118053400Y-101809400D01*
X104360000Y-116840000D02*
X104360000Y-111189700D01*
D14*
X112355000Y-87376000D02*
X112355000Y-92651300D01*
X155943400Y-100364500D02*
X157688000Y-98619900D01*
X154264900Y-100364500D02*
X155943400Y-100364500D01*
X154159100Y-100258700D02*
X154264900Y-100364500D01*
X150263000Y-100258700D02*
X154159100Y-100258700D01*
X149969400Y-100552300D02*
X150263000Y-100258700D01*
X149232900Y-100552300D02*
X149969400Y-100552300D01*
X149194000Y-100513400D02*
X149232900Y-100552300D01*
X120217100Y-100513400D02*
X149194000Y-100513400D01*
X112355000Y-92651300D02*
X120217100Y-100513400D01*
X155303600Y-98605500D02*
X155303600Y-99639200D01*
X153572000Y-96873900D02*
X155303600Y-98605500D01*
X140337600Y-96873900D02*
X153572000Y-96873900D01*
X136115000Y-92651300D02*
X140337600Y-96873900D01*
X136115000Y-87376000D02*
X136115000Y-92651300D01*
X143960000Y-116840000D02*
X143960000Y-111564700D01*
X120275000Y-87376000D02*
X120275000Y-92651300D01*
X122405100Y-94781400D02*
X122405100Y-95820700D01*
X120275000Y-92651300D02*
X122405100Y-94781400D01*
X142590200Y-110194900D02*
X143960000Y-111564700D01*
X132344900Y-110194900D02*
X142590200Y-110194900D01*
X131016700Y-108866700D02*
X132344900Y-110194900D01*
X131016700Y-106780400D02*
X131016700Y-108866700D01*
D13*
X132080000Y-116840000D02*
X132080000Y-111439700D01*
X147995000Y-87376000D02*
X147995000Y-92776300D01*
X146816500Y-92776300D02*
X146378200Y-92338000D01*
X147995000Y-92776300D02*
X146816500Y-92776300D01*
X132873100Y-111439700D02*
X133038800Y-111274000D01*
X132080000Y-111439700D02*
X132873100Y-111439700D01*
D14*
X159800000Y-116840000D02*
X159800000Y-111564700D01*
X152616000Y-104380700D02*
X136621300Y-104380700D01*
X159800000Y-111564700D02*
X152616000Y-104380700D01*
X147920000Y-116840000D02*
X147920000Y-111564700D01*
X116315000Y-87376000D02*
X116315000Y-92651300D01*
X116315000Y-92651300D02*
X117060300Y-93396600D01*
X146099900Y-109744600D02*
X147920000Y-111564700D01*
X133018500Y-109744600D02*
X146099900Y-109744600D01*
X132127000Y-108853100D02*
X133018500Y-109744600D01*
X155840000Y-116840000D02*
X155840000Y-111564700D01*
X132109400Y-92696900D02*
X132109400Y-93393800D01*
X132155000Y-92651300D02*
X132109400Y-92696900D01*
X132155000Y-87376000D02*
X132155000Y-92651300D01*
X149404400Y-105129100D02*
X135766100Y-105129100D01*
X155840000Y-111564700D02*
X149404400Y-105129100D01*
X167720000Y-116840000D02*
X167720000Y-111564700D01*
X161123500Y-104968200D02*
X167720000Y-111564700D01*
X154750400Y-104968200D02*
X161123500Y-104968200D01*
X152692000Y-102909800D02*
X154750400Y-104968200D01*
X135560300Y-102909800D02*
X152692000Y-102909800D01*
X171680000Y-116840000D02*
X171680000Y-111564700D01*
X108395000Y-87376000D02*
X108395000Y-92651300D01*
X164358200Y-104242900D02*
X156506100Y-104242900D01*
X171680000Y-111564700D02*
X164358200Y-104242900D01*
X153840000Y-101002600D02*
X153857100Y-100985500D01*
X148445400Y-101002600D02*
X153840000Y-101002600D01*
X148426800Y-100984000D02*
X148445400Y-101002600D01*
X116727700Y-100984000D02*
X148426800Y-100984000D01*
X108395000Y-92651300D02*
X116727700Y-100984000D01*
X131410700Y-99827000D02*
X149668900Y-99827000D01*
X124235000Y-92651300D02*
X131410700Y-99827000D01*
X151880000Y-116840000D02*
X151880000Y-111564700D01*
X151448900Y-111564700D02*
X151880000Y-111564700D01*
X150706400Y-110822200D02*
X151448900Y-111564700D01*
X124235000Y-87376000D02*
X124235000Y-92651300D01*
G04 #@! TA.AperFunction,Conductor*
G36*
X93922121Y-86888502D02*
G01*
X93968614Y-86942158D01*
X93980000Y-86994500D01*
X93980000Y-121285500D01*
X93959998Y-121353621D01*
X93906342Y-121400114D01*
X93854000Y-121411500D01*
X85470500Y-121411500D01*
X85402379Y-121391498D01*
X85355886Y-121337842D01*
X85344500Y-121285500D01*
X85344500Y-86994500D01*
X85364502Y-86926379D01*
X85418158Y-86879886D01*
X85470500Y-86868500D01*
X93854000Y-86868500D01*
X93922121Y-86888502D01*
G37*
G04 #@! TD.AperFunction*
G04 #@! TA.AperFunction,Conductor*
G36*
X106680000Y-92710000D02*
G01*
X102870000Y-97790000D01*
X102870000Y-111775029D01*
X102868255Y-111779684D01*
X102861500Y-111841866D01*
X102861500Y-121285500D01*
X102841498Y-121353621D01*
X102787842Y-121400114D01*
X102735500Y-121411500D01*
X95250000Y-121411500D01*
X95250000Y-86868500D01*
X106680000Y-86868500D01*
X106680000Y-92710000D01*
G37*
G04 #@! TD.AperFunction*
G04 #@! TA.AperFunction,Conductor*
G36*
X180282121Y-86888502D02*
G01*
X180328614Y-86942158D01*
X180340000Y-86994500D01*
X180340000Y-104140000D01*
X182880000Y-106680000D01*
X198501500Y-106680000D01*
X198569621Y-106700002D01*
X198616114Y-106753658D01*
X198627500Y-106806000D01*
X198627500Y-121285500D01*
X198607498Y-121353621D01*
X198553842Y-121400114D01*
X198501500Y-121411500D01*
X189356000Y-121411500D01*
X189287879Y-121391498D01*
X189241386Y-121337842D01*
X189230000Y-121285500D01*
X189230000Y-111760000D01*
X189091694Y-111760000D01*
X189023573Y-111739998D01*
X188977080Y-111686342D01*
X188973712Y-111678231D01*
X188963766Y-111651701D01*
X188960615Y-111643295D01*
X188873261Y-111526739D01*
X188756705Y-111439385D01*
X188620316Y-111388255D01*
X188558134Y-111381500D01*
X186481866Y-111381500D01*
X186419684Y-111388255D01*
X186283295Y-111439385D01*
X186166739Y-111526739D01*
X186079385Y-111643295D01*
X186076234Y-111651701D01*
X186066288Y-111678231D01*
X186023645Y-111734995D01*
X185957084Y-111759694D01*
X185948306Y-111760000D01*
X185131694Y-111760000D01*
X185063573Y-111739998D01*
X185017080Y-111686342D01*
X185013712Y-111678231D01*
X185003766Y-111651701D01*
X185000615Y-111643295D01*
X184913261Y-111526739D01*
X184796705Y-111439385D01*
X184660316Y-111388255D01*
X184598134Y-111381500D01*
X182553690Y-111381500D01*
X182485569Y-111361498D01*
X182464595Y-111344595D01*
X166406905Y-95286905D01*
X166372879Y-95224593D01*
X166370000Y-95197810D01*
X166370000Y-86994500D01*
X166390002Y-86926379D01*
X166443658Y-86879886D01*
X166496000Y-86868500D01*
X180214000Y-86868500D01*
X180282121Y-86888502D01*
G37*
G04 #@! TD.AperFunction*
G04 #@! TA.AperFunction,Conductor*
G36*
X94959121Y-86888502D02*
G01*
X95005614Y-86942158D01*
X95017000Y-86994500D01*
X95017000Y-87103885D01*
X95021475Y-87119124D01*
X95022865Y-87120329D01*
X95030548Y-87122000D01*
X95250000Y-87122000D01*
X95250000Y-87630000D01*
X95035115Y-87630000D01*
X95019876Y-87634475D01*
X95018671Y-87635865D01*
X95017000Y-87643548D01*
X95017001Y-92370669D01*
X95017371Y-92377490D01*
X95022895Y-92428352D01*
X95026521Y-92443604D01*
X95071676Y-92564054D01*
X95080214Y-92579649D01*
X95156715Y-92681724D01*
X95169276Y-92694285D01*
X95250000Y-92754784D01*
X95250000Y-111422410D01*
X95211946Y-111436676D01*
X95196351Y-111445214D01*
X95094276Y-111521715D01*
X95081715Y-111534276D01*
X95005214Y-111636351D01*
X94996676Y-111651946D01*
X94951522Y-111772394D01*
X94947895Y-111787649D01*
X94942369Y-111838514D01*
X94942000Y-111845328D01*
X94942000Y-116567885D01*
X94946475Y-116583124D01*
X94947865Y-116584329D01*
X94955548Y-116586000D01*
X95250000Y-116586000D01*
X95250000Y-117094000D01*
X94960116Y-117094000D01*
X94944877Y-117098475D01*
X94943672Y-117099865D01*
X94942001Y-117107548D01*
X94942001Y-121285500D01*
X94921999Y-121353621D01*
X94868343Y-121400114D01*
X94816001Y-121411500D01*
X94619500Y-121411500D01*
X94551379Y-121391498D01*
X94504886Y-121337842D01*
X94493500Y-121285500D01*
X94493500Y-86994500D01*
X94513502Y-86926379D01*
X94567158Y-86879886D01*
X94619500Y-86868500D01*
X94891000Y-86868500D01*
X94959121Y-86888502D01*
G37*
G04 #@! TD.AperFunction*
G04 #@! TA.AperFunction,Conductor*
G36*
X106838621Y-86888502D02*
G01*
X106885114Y-86942158D01*
X106896500Y-86994500D01*
X106896500Y-92374134D01*
X106903255Y-92436316D01*
X106954385Y-92572705D01*
X107041739Y-92689261D01*
X107158295Y-92776615D01*
X107294684Y-92827745D01*
X107356866Y-92834500D01*
X107696837Y-92834500D01*
X107764958Y-92854502D01*
X107808158Y-92905379D01*
X107808981Y-92904892D01*
X107811820Y-92909692D01*
X107813021Y-92911722D01*
X107819293Y-92922328D01*
X107827988Y-92940076D01*
X107835448Y-92958917D01*
X107840110Y-92965333D01*
X107840110Y-92965334D01*
X107861436Y-92994687D01*
X107867952Y-93004607D01*
X107883756Y-93031329D01*
X107890458Y-93042662D01*
X107904779Y-93056983D01*
X107917619Y-93072016D01*
X107929528Y-93088407D01*
X107935634Y-93093458D01*
X107963605Y-93116598D01*
X107972384Y-93124588D01*
X116224043Y-101376247D01*
X116231587Y-101384537D01*
X116235700Y-101391018D01*
X116241477Y-101396443D01*
X116285367Y-101437658D01*
X116288209Y-101440413D01*
X116307930Y-101460134D01*
X116311125Y-101462612D01*
X116320147Y-101470318D01*
X116352379Y-101500586D01*
X116359328Y-101504406D01*
X116370132Y-101510346D01*
X116386656Y-101521199D01*
X116402659Y-101533613D01*
X116443243Y-101551176D01*
X116453873Y-101556383D01*
X116492640Y-101577695D01*
X116500317Y-101579666D01*
X116500322Y-101579668D01*
X116512258Y-101582732D01*
X116530966Y-101589137D01*
X116549555Y-101597181D01*
X116557382Y-101598421D01*
X116564997Y-101600633D01*
X116564490Y-101602379D01*
X116619671Y-101628542D01*
X116657195Y-101688813D01*
X116656177Y-101759802D01*
X116624897Y-101811669D01*
X108480667Y-109955899D01*
X108418355Y-109989925D01*
X108402557Y-109992324D01*
X108376094Y-109994639D01*
X108334519Y-109998276D01*
X108334514Y-109998277D01*
X108328387Y-109998813D01*
X108323268Y-110000300D01*
X108317967Y-110000820D01*
X108228966Y-110027691D01*
X108227833Y-110028026D01*
X108144386Y-110052270D01*
X108144382Y-110052272D01*
X108138464Y-110053991D01*
X108133732Y-110056444D01*
X108128631Y-110057984D01*
X108123188Y-110060878D01*
X108046540Y-110101631D01*
X108045374Y-110102243D01*
X107982854Y-110134651D01*
X107962874Y-110145008D01*
X107958711Y-110148331D01*
X107954004Y-110150834D01*
X107949229Y-110154728D01*
X107949228Y-110154729D01*
X107881902Y-110209639D01*
X107880875Y-110210467D01*
X107844592Y-110239431D01*
X107844587Y-110239436D01*
X107841828Y-110241638D01*
X107839327Y-110244139D01*
X107838609Y-110244781D01*
X107834261Y-110248494D01*
X107800738Y-110275835D01*
X107796815Y-110280577D01*
X107796813Y-110280579D01*
X107771503Y-110311173D01*
X107763513Y-110319953D01*
X107650621Y-110432845D01*
X107640478Y-110441947D01*
X107610975Y-110465668D01*
X107578709Y-110504121D01*
X107575528Y-110507769D01*
X107573885Y-110509581D01*
X107571691Y-110511775D01*
X107544358Y-110545049D01*
X107543696Y-110545847D01*
X107483846Y-110617174D01*
X107481278Y-110621844D01*
X107477897Y-110625961D01*
X107450353Y-110677331D01*
X107434023Y-110707786D01*
X107433394Y-110708945D01*
X107391538Y-110785081D01*
X107391535Y-110785089D01*
X107388567Y-110790487D01*
X107386955Y-110795569D01*
X107384438Y-110800263D01*
X107357238Y-110889231D01*
X107356918Y-110890259D01*
X107328765Y-110979006D01*
X107328171Y-110984302D01*
X107326613Y-110989398D01*
X107317469Y-111079419D01*
X107317218Y-111081887D01*
X107317089Y-111083093D01*
X107315260Y-111099402D01*
X107311893Y-111129427D01*
X107311500Y-111132927D01*
X107311500Y-111136451D01*
X107311445Y-111137439D01*
X107310998Y-111143119D01*
X107306626Y-111186162D01*
X107309035Y-111211648D01*
X107310941Y-111231809D01*
X107311500Y-111243667D01*
X107311500Y-111267884D01*
X107291498Y-111336005D01*
X107237842Y-111382498D01*
X107221734Y-111388032D01*
X107219684Y-111388255D01*
X107212289Y-111391027D01*
X107212286Y-111391028D01*
X107145578Y-111416036D01*
X107083295Y-111439385D01*
X106966739Y-111526739D01*
X106879385Y-111643295D01*
X106828255Y-111779684D01*
X106821500Y-111841866D01*
X106821500Y-121285500D01*
X106801498Y-121353621D01*
X106747842Y-121400114D01*
X106695500Y-121411500D01*
X105984500Y-121411500D01*
X105916379Y-121391498D01*
X105869886Y-121337842D01*
X105858500Y-121285500D01*
X105858500Y-111841866D01*
X105851745Y-111779684D01*
X105800615Y-111643295D01*
X105713261Y-111526739D01*
X105596705Y-111439385D01*
X105534422Y-111416036D01*
X105467714Y-111391028D01*
X105467711Y-111391027D01*
X105463700Y-111389524D01*
X105463699Y-111389523D01*
X105460316Y-111388255D01*
X105460521Y-111387708D01*
X105403704Y-111355246D01*
X105370886Y-111292290D01*
X105368500Y-111267884D01*
X105368500Y-111139931D01*
X105367944Y-111134254D01*
X105357782Y-111030620D01*
X105354080Y-110992867D01*
X105351667Y-110984873D01*
X105320363Y-110881192D01*
X105296916Y-110803531D01*
X105204066Y-110628904D01*
X105108538Y-110511775D01*
X105082960Y-110480413D01*
X105082957Y-110480410D01*
X105079065Y-110475638D01*
X105072724Y-110470392D01*
X104931425Y-110353499D01*
X104931421Y-110353497D01*
X104926675Y-110349570D01*
X104752701Y-110255502D01*
X104563768Y-110197018D01*
X104557643Y-110196374D01*
X104557642Y-110196374D01*
X104373204Y-110176989D01*
X104373202Y-110176989D01*
X104367075Y-110176345D01*
X104284576Y-110183853D01*
X104176251Y-110193711D01*
X104176248Y-110193712D01*
X104170112Y-110194270D01*
X104164206Y-110196008D01*
X104164202Y-110196009D01*
X104115078Y-110210467D01*
X103980381Y-110250110D01*
X103974923Y-110252963D01*
X103974919Y-110252965D01*
X103913153Y-110285256D01*
X103805110Y-110341740D01*
X103650975Y-110465668D01*
X103523846Y-110617174D01*
X103520879Y-110622572D01*
X103520875Y-110622577D01*
X103449869Y-110751739D01*
X103428567Y-110790487D01*
X103426706Y-110796354D01*
X103426705Y-110796356D01*
X103384656Y-110928910D01*
X103368765Y-110979006D01*
X103351500Y-111132927D01*
X103351500Y-111267884D01*
X103331498Y-111336005D01*
X103277842Y-111382498D01*
X103261734Y-111388032D01*
X103259684Y-111388255D01*
X103252289Y-111391027D01*
X103252286Y-111391028D01*
X103185578Y-111416036D01*
X103123295Y-111439385D01*
X103006739Y-111526739D01*
X102919385Y-111643295D01*
X102870000Y-111775029D01*
X102870000Y-97790000D01*
X106680000Y-92710000D01*
X106680000Y-86868500D01*
X106770500Y-86868500D01*
X106838621Y-86888502D01*
G37*
G04 #@! TD.AperFunction*
M02*
