G04 #@! TF.GenerationSoftware,KiCad,Pcbnew,(6.0.6-0)*
G04 #@! TF.CreationDate,2022-08-17T04:52:14+09:00*
G04 #@! TF.ProjectId,PENGO2JAMMA,50454e47-4f32-44a4-914d-4d412e6b6963,rev?*
G04 #@! TF.SameCoordinates,Original*
G04 #@! TF.FileFunction,Legend,Top*
G04 #@! TF.FilePolarity,Positive*
%FSLAX46Y46*%
G04 Gerber Fmt 4.6, Leading zero omitted, Abs format (unit mm)*
G04 Created by KiCad (PCBNEW (6.0.6-0)) date 2022-08-17 04:52:14*
%MOMM*%
%LPD*%
G01*
G04 APERTURE LIST*
%ADD10C,0.750000*%
G04 APERTURE END LIST*
D10*
X87750476Y-96607142D02*
X87750476Y-93607142D01*
X89655238Y-93607142D01*
X90131428Y-93750000D01*
X90369523Y-93892857D01*
X90607619Y-94178571D01*
X90607619Y-94607142D01*
X90369523Y-94892857D01*
X90131428Y-95035714D01*
X89655238Y-95178571D01*
X87750476Y-95178571D01*
X92750476Y-95035714D02*
X94417142Y-95035714D01*
X95131428Y-96607142D02*
X92750476Y-96607142D01*
X92750476Y-93607142D01*
X95131428Y-93607142D01*
X97274285Y-96607142D02*
X97274285Y-93607142D01*
X100131428Y-96607142D01*
X100131428Y-93607142D01*
X105131428Y-93750000D02*
X104655238Y-93607142D01*
X103940952Y-93607142D01*
X103226666Y-93750000D01*
X102750476Y-94035714D01*
X102512380Y-94321428D01*
X102274285Y-94892857D01*
X102274285Y-95321428D01*
X102512380Y-95892857D01*
X102750476Y-96178571D01*
X103226666Y-96464285D01*
X103940952Y-96607142D01*
X104417142Y-96607142D01*
X105131428Y-96464285D01*
X105369523Y-96321428D01*
X105369523Y-95321428D01*
X104417142Y-95321428D01*
X108464761Y-93607142D02*
X109417142Y-93607142D01*
X109893333Y-93750000D01*
X110369523Y-94035714D01*
X110607619Y-94607142D01*
X110607619Y-95607142D01*
X110369523Y-96178571D01*
X109893333Y-96464285D01*
X109417142Y-96607142D01*
X108464761Y-96607142D01*
X107988571Y-96464285D01*
X107512380Y-96178571D01*
X107274285Y-95607142D01*
X107274285Y-94607142D01*
X107512380Y-94035714D01*
X107988571Y-93750000D01*
X108464761Y-93607142D01*
X89774285Y-107577142D02*
X89774285Y-109720000D01*
X89536190Y-110148571D01*
X89060000Y-110434285D01*
X88345714Y-110577142D01*
X87869523Y-110577142D01*
X91917142Y-109720000D02*
X94298095Y-109720000D01*
X91440952Y-110577142D02*
X93107619Y-107577142D01*
X94774285Y-110577142D01*
X96440952Y-110577142D02*
X96440952Y-107577142D01*
X98107619Y-109720000D01*
X99774285Y-107577142D01*
X99774285Y-110577142D01*
X102155238Y-110577142D02*
X102155238Y-107577142D01*
X103821904Y-109720000D01*
X105488571Y-107577142D01*
X105488571Y-110577142D01*
X107631428Y-109720000D02*
X110012380Y-109720000D01*
X107155238Y-110577142D02*
X108821904Y-107577142D01*
X110488571Y-110577142D01*
G36*
X189703433Y-91368365D02*
G01*
X189692948Y-91290069D01*
X189696370Y-91198991D01*
X189697653Y-91184298D01*
X189745312Y-90950572D01*
X189844202Y-90746052D01*
X189996072Y-90567186D01*
X190005284Y-90558673D01*
X190189157Y-90422740D01*
X190376821Y-90345454D01*
X190564940Y-90326684D01*
X190750174Y-90366298D01*
X190929187Y-90464166D01*
X191081336Y-90600985D01*
X191224105Y-90798991D01*
X191321328Y-91031185D01*
X191371255Y-91291706D01*
X191372141Y-91574618D01*
X191351161Y-91757355D01*
X191318668Y-91900986D01*
X191268402Y-92025516D01*
X191194099Y-92150953D01*
X191189669Y-92157566D01*
X191138348Y-92242136D01*
X191118712Y-92294274D01*
X191127291Y-92307472D01*
X191197381Y-92333159D01*
X191269231Y-92399357D01*
X191327416Y-92489776D01*
X191346624Y-92539172D01*
X191361470Y-92605093D01*
X191364634Y-92677154D01*
X191355207Y-92770907D01*
X191332282Y-92901905D01*
X191322552Y-92951210D01*
X191263414Y-93246207D01*
X191407969Y-93570590D01*
X191473623Y-93714809D01*
X191556925Y-93893188D01*
X191648936Y-94086826D01*
X191740717Y-94276827D01*
X191777822Y-94352570D01*
X191973611Y-94781249D01*
X192125623Y-95184916D01*
X192237640Y-95574055D01*
X192269780Y-95716803D01*
X192303507Y-95862833D01*
X192336522Y-95964882D01*
X192374693Y-96037950D01*
X192414853Y-96087714D01*
X192580412Y-96287540D01*
X192744386Y-96530806D01*
X192897958Y-96802048D01*
X193032311Y-97085805D01*
X193131204Y-97344145D01*
X193207085Y-97594252D01*
X193264679Y-97842166D01*
X193305718Y-98100791D01*
X193331935Y-98383028D01*
X193345062Y-98701781D01*
X193347389Y-98954201D01*
X193344664Y-99205426D01*
X193337437Y-99449601D01*
X193326368Y-99671855D01*
X193312121Y-99857313D01*
X193303786Y-99933406D01*
X193285328Y-100089942D01*
X193277795Y-100197114D01*
X193283332Y-100264249D01*
X193304085Y-100300678D01*
X193342199Y-100315728D01*
X193392409Y-100318700D01*
X193438437Y-100326389D01*
X193446371Y-100360429D01*
X193436919Y-100400755D01*
X193426813Y-100466226D01*
X193419000Y-100572675D01*
X193414633Y-100701742D01*
X193414099Y-100764248D01*
X193416101Y-100904585D01*
X193424229Y-101003419D01*
X193441665Y-101078516D01*
X193471589Y-101147645D01*
X193488281Y-101178520D01*
X193602057Y-101322834D01*
X193757651Y-101431938D01*
X193946612Y-101502165D01*
X194160488Y-101529849D01*
X194287721Y-101525426D01*
X194499358Y-101481175D01*
X194718138Y-101391590D01*
X194932940Y-101265227D01*
X195132648Y-101110643D01*
X195306142Y-100936396D01*
X195442304Y-100751044D01*
X195527318Y-100571374D01*
X195565855Y-100507838D01*
X195627417Y-100490152D01*
X195717749Y-100518114D01*
X195796461Y-100561810D01*
X195900065Y-100659243D01*
X195980829Y-100806403D01*
X196036113Y-100997213D01*
X196059444Y-101167436D01*
X196082445Y-101358891D01*
X196119953Y-101511090D01*
X196178537Y-101643586D01*
X196262977Y-101773508D01*
X196348493Y-101872998D01*
X196473790Y-101995942D01*
X196628816Y-102133561D01*
X196803523Y-102277076D01*
X196987861Y-102417708D01*
X197060016Y-102469751D01*
X197201283Y-102578080D01*
X197295172Y-102672941D01*
X197348585Y-102764857D01*
X197368423Y-102864351D01*
X197366653Y-102937251D01*
X197347386Y-103053321D01*
X197306659Y-103151147D01*
X197237118Y-103238287D01*
X197131409Y-103322299D01*
X196982177Y-103410744D01*
X196831430Y-103487380D01*
X196679189Y-103558991D01*
X196527883Y-103625806D01*
X196394534Y-103680570D01*
X196296165Y-103716023D01*
X196292370Y-103717189D01*
X196000225Y-103810488D01*
X195754789Y-103900065D01*
X195544127Y-103991306D01*
X195356304Y-104089596D01*
X195179386Y-104200320D01*
X195102062Y-104254264D01*
X194867609Y-104421031D01*
X194672497Y-104555773D01*
X194509147Y-104662805D01*
X194369982Y-104746442D01*
X194247424Y-104810999D01*
X194133895Y-104860790D01*
X194021817Y-104900130D01*
X193914255Y-104930600D01*
X193711198Y-104969550D01*
X193525095Y-104971772D01*
X193326302Y-104937287D01*
X193301470Y-104931016D01*
X193056237Y-104844326D01*
X192858372Y-104722707D01*
X192705956Y-104564292D01*
X192597073Y-104367213D01*
X192542495Y-104191467D01*
X192528972Y-104125533D01*
X192518625Y-104055264D01*
X192511354Y-103973581D01*
X192507055Y-103873405D01*
X192505629Y-103747657D01*
X192506973Y-103589260D01*
X192510984Y-103391134D01*
X192517562Y-103146202D01*
X192524260Y-102922951D01*
X192529758Y-102717090D01*
X192533066Y-102532229D01*
X192534176Y-102376187D01*
X192533081Y-102256785D01*
X192529775Y-102181844D01*
X192524916Y-102158874D01*
X192497567Y-102178617D01*
X192434654Y-102233682D01*
X192342969Y-102317819D01*
X192229304Y-102424779D01*
X192100449Y-102548314D01*
X192076960Y-102571057D01*
X191925343Y-102715022D01*
X191767209Y-102859870D01*
X191615083Y-102994492D01*
X191481488Y-103107776D01*
X191390598Y-103179941D01*
X191008446Y-103433522D01*
X190612564Y-103629732D01*
X190204233Y-103768281D01*
X189784738Y-103848880D01*
X189355361Y-103871239D01*
X188917385Y-103835068D01*
X188681272Y-103791863D01*
X188455469Y-103734756D01*
X188241848Y-103665683D01*
X188049681Y-103588781D01*
X187888244Y-103508189D01*
X187766809Y-103428044D01*
X187694651Y-103352483D01*
X187693981Y-103351389D01*
X187646980Y-103284652D01*
X187577481Y-103197714D01*
X187525973Y-103138079D01*
X187406369Y-103004551D01*
X187522130Y-103256771D01*
X187629401Y-103516325D01*
X187699210Y-103751240D01*
X187735919Y-103978984D01*
X187744289Y-104146958D01*
X187742848Y-104281447D01*
X187732327Y-104381037D01*
X187707777Y-104470028D01*
X187664253Y-104572723D01*
X187652541Y-104597667D01*
X187525204Y-104805788D01*
X187360646Y-104980435D01*
X187167845Y-105116587D01*
X186955778Y-105209221D01*
X186733423Y-105253316D01*
X186509757Y-105243850D01*
X186500314Y-105242178D01*
X186429174Y-105225129D01*
X186315676Y-105193293D01*
X186173722Y-105150757D01*
X186017218Y-105101611D01*
X185966202Y-105085113D01*
X185733317Y-105010977D01*
X185536619Y-104953279D01*
X185356786Y-104907460D01*
X185174496Y-104868965D01*
X184970428Y-104833237D01*
X184761844Y-104801112D01*
X184489955Y-104758705D01*
X184207700Y-104710819D01*
X183926185Y-104659626D01*
X183656514Y-104607297D01*
X183409794Y-104556004D01*
X183197129Y-104507917D01*
X183029625Y-104465207D01*
X182998912Y-104456448D01*
X182896942Y-104420716D01*
X182769492Y-104367968D01*
X182643336Y-104309319D01*
X182637723Y-104306521D01*
X182509431Y-104232275D01*
X182421380Y-104153301D01*
X182372464Y-104061941D01*
X182361577Y-103950541D01*
X182387614Y-103811443D01*
X182449469Y-103636992D01*
X182518255Y-103479318D01*
X182613054Y-103242080D01*
X182671642Y-103014404D01*
X182697052Y-102777207D01*
X182692318Y-102511410D01*
X182685711Y-102425930D01*
X182661813Y-102144450D01*
X182645067Y-101914967D01*
X182635930Y-101730514D01*
X182634860Y-101584122D01*
X182642315Y-101468820D01*
X182658750Y-101377641D01*
X182684625Y-101303616D01*
X182720395Y-101239776D01*
X182766519Y-101179151D01*
X182767613Y-101177849D01*
X182830245Y-101111250D01*
X182896827Y-101061966D01*
X182978025Y-101026831D01*
X183084504Y-101002679D01*
X183226927Y-100986344D01*
X183415961Y-100974661D01*
X183458842Y-100972669D01*
X183642729Y-100961845D01*
X183794447Y-100947731D01*
X183904810Y-100931386D01*
X183963281Y-100914600D01*
X184102469Y-100813476D01*
X184240045Y-100658310D01*
X184355353Y-100482355D01*
X184480862Y-100288456D01*
X184607270Y-100137233D01*
X184729066Y-100034808D01*
X184785751Y-100004135D01*
X184950637Y-99964386D01*
X185124811Y-99979478D01*
X185301588Y-100047100D01*
X185474280Y-100164938D01*
X185596944Y-100284710D01*
X185681050Y-100387204D01*
X185790197Y-100533134D01*
X185919248Y-100714835D01*
X186063070Y-100924641D01*
X186216526Y-101154888D01*
X186374480Y-101397910D01*
X186531798Y-101646042D01*
X186683343Y-101891618D01*
X186769823Y-102035322D01*
X186870926Y-102203375D01*
X186966821Y-102359537D01*
X187051679Y-102494565D01*
X187119670Y-102599212D01*
X187164963Y-102664233D01*
X187172120Y-102673289D01*
X187212719Y-102718801D01*
X187251624Y-102746558D01*
X187304334Y-102760946D01*
X187386347Y-102766354D01*
X187503764Y-102767168D01*
X187637198Y-102764616D01*
X187727516Y-102755004D01*
X187790804Y-102735395D01*
X187839003Y-102705989D01*
X187965144Y-102580160D01*
X188036989Y-102434095D01*
X188054490Y-102271625D01*
X188017599Y-102096578D01*
X187926266Y-101912784D01*
X187850350Y-101806235D01*
X187790039Y-101740929D01*
X187692802Y-101648411D01*
X187568712Y-101537705D01*
X187427845Y-101417833D01*
X187301956Y-101315086D01*
X186993569Y-101065414D01*
X186700586Y-100822116D01*
X186431922Y-100592770D01*
X186196496Y-100384954D01*
X186056833Y-100256899D01*
X185862346Y-100074967D01*
X185862346Y-99773443D01*
X185889683Y-99268691D01*
X185970104Y-98750528D01*
X186101231Y-98226649D01*
X186280681Y-97704748D01*
X186506073Y-97192518D01*
X186775028Y-96697654D01*
X186853711Y-96569749D01*
X186928097Y-96450082D01*
X186976084Y-96363693D01*
X187003450Y-96294000D01*
X187015977Y-96224417D01*
X187019444Y-96138360D01*
X187019589Y-96093799D01*
X187029401Y-95901586D01*
X187061318Y-95716956D01*
X187119066Y-95530521D01*
X187206372Y-95332891D01*
X187326960Y-95114677D01*
X187484557Y-94866489D01*
X187538117Y-94786975D01*
X187666942Y-94595399D01*
X187765451Y-94440473D01*
X187838160Y-94310796D01*
X187889582Y-94194967D01*
X187924233Y-94081586D01*
X187946627Y-93959253D01*
X187961278Y-93816566D01*
X187969379Y-93697905D01*
X187979151Y-93553049D01*
X187989099Y-93430916D01*
X187998160Y-93343011D01*
X188005272Y-93300839D01*
X188006240Y-93299014D01*
X188032476Y-93312325D01*
X188089264Y-93365722D01*
X188170543Y-93452589D01*
X188270254Y-93566307D01*
X188382334Y-93700258D01*
X188448559Y-93782035D01*
X188594121Y-93943431D01*
X188738440Y-94054835D01*
X188896251Y-94123410D01*
X189082289Y-94156319D01*
X189230220Y-94161980D01*
X189437516Y-94152510D01*
X189608577Y-94122374D01*
X189675314Y-94102635D01*
X189853351Y-94043336D01*
X189512113Y-94024426D01*
X189262497Y-94001078D01*
X189055356Y-93958249D01*
X188875601Y-93890893D01*
X188708144Y-93793967D01*
X188612587Y-93723691D01*
X188541014Y-93657304D01*
X188523825Y-93613500D01*
X188528981Y-93605136D01*
X188568806Y-93591674D01*
X188655038Y-93577141D01*
X188774808Y-93563322D01*
X188909231Y-93552396D01*
X189257670Y-93519193D01*
X189559897Y-93466492D01*
X189826977Y-93390328D01*
X190069976Y-93286734D01*
X190299959Y-93151745D01*
X190527991Y-92981395D01*
X190547606Y-92965184D01*
X190646405Y-92886168D01*
X190738618Y-92817899D01*
X190806555Y-92773380D01*
X190814114Y-92769267D01*
X190886474Y-92723372D01*
X190934788Y-92680340D01*
X190957370Y-92644102D01*
X190933421Y-92634010D01*
X190924966Y-92633874D01*
X190882173Y-92652082D01*
X190807588Y-92700917D01*
X190713876Y-92771695D01*
X190661695Y-92814370D01*
X190383564Y-93029640D01*
X190115660Y-93196697D01*
X189845091Y-93321985D01*
X189558964Y-93411948D01*
X189393914Y-93448020D01*
X189077893Y-93489537D01*
X188796758Y-93486354D01*
X188545395Y-93437613D01*
X188318691Y-93342455D01*
X188163434Y-93241373D01*
X188036599Y-93156875D01*
X187922390Y-93102613D01*
X187871580Y-93088999D01*
X187793758Y-93067117D01*
X187744853Y-93035885D01*
X187739881Y-93027712D01*
X187732700Y-92943295D01*
X187756236Y-92828701D01*
X187804657Y-92700509D01*
X187872131Y-92575297D01*
X187924997Y-92501447D01*
X188053754Y-92343369D01*
X187984163Y-92277991D01*
X187895916Y-92159536D01*
X187825373Y-91989300D01*
X187773821Y-91772537D01*
X187742550Y-91514496D01*
X187742416Y-91510916D01*
X187972318Y-91510916D01*
X187985079Y-91655096D01*
X188021530Y-91781841D01*
X188024461Y-91788451D01*
X188065979Y-91857350D01*
X188128484Y-91937432D01*
X188198587Y-92014164D01*
X188262898Y-92073015D01*
X188308028Y-92099456D01*
X188311324Y-92099762D01*
X188340751Y-92083921D01*
X188404101Y-92042554D01*
X188480911Y-91989353D01*
X188532743Y-91951397D01*
X189615968Y-91951397D01*
X189658901Y-91978700D01*
X189677065Y-91981070D01*
X189715415Y-91964479D01*
X189719823Y-91951397D01*
X189694896Y-91927521D01*
X189658726Y-91921724D01*
X189617697Y-91933147D01*
X189615968Y-91951397D01*
X188532743Y-91951397D01*
X188565703Y-91927261D01*
X188631241Y-91875564D01*
X188660546Y-91848406D01*
X188670854Y-91805204D01*
X188675255Y-91720872D01*
X188672835Y-91613418D01*
X188672655Y-91610159D01*
X188641121Y-91403814D01*
X188573427Y-91234064D01*
X188472435Y-91107722D01*
X188455551Y-91093688D01*
X188355392Y-91045963D01*
X188236685Y-91032244D01*
X188128935Y-91055457D01*
X188119104Y-91060345D01*
X188056639Y-91124016D01*
X188010051Y-91230351D01*
X187981293Y-91364326D01*
X187972318Y-91510916D01*
X187742416Y-91510916D01*
X187732821Y-91254084D01*
X187739722Y-91061543D01*
X187764221Y-90910847D01*
X187809934Y-90786166D01*
X187858865Y-90702351D01*
X187976739Y-90572487D01*
X188117053Y-90493303D01*
X188271686Y-90467665D01*
X188432522Y-90498438D01*
X188434539Y-90499192D01*
X188563939Y-90575908D01*
X188687106Y-90700587D01*
X188796616Y-90861857D01*
X188885044Y-91048346D01*
X188944966Y-91248683D01*
X188953746Y-91294417D01*
X188970978Y-91407555D01*
X188974347Y-91481063D01*
X188962900Y-91533235D01*
X188938986Y-91577308D01*
X188885069Y-91660750D01*
X188842747Y-91726276D01*
X188796511Y-91797884D01*
X188978918Y-91741112D01*
X189178537Y-91698880D01*
X189393685Y-91686661D01*
X189600287Y-91704535D01*
X189737755Y-91738632D01*
X189889214Y-91790986D01*
X189785694Y-91573001D01*
X189768966Y-91535892D01*
X190095877Y-91535892D01*
X190111963Y-91724219D01*
X190165005Y-91870340D01*
X190258879Y-91981319D01*
X190381747Y-92057116D01*
X190489610Y-92104038D01*
X190567213Y-92123596D01*
X190636783Y-92116114D01*
X190720551Y-92081921D01*
X190759383Y-92062670D01*
X190890935Y-91968712D01*
X190976909Y-91840802D01*
X191019373Y-91675144D01*
X191024942Y-91574999D01*
X191015706Y-91412235D01*
X190983041Y-91288049D01*
X190921011Y-91184308D01*
X190882596Y-91140162D01*
X190751261Y-91032063D01*
X190611003Y-90979257D01*
X190529883Y-90972302D01*
X190384162Y-90999326D01*
X190263471Y-91076250D01*
X190172242Y-91197323D01*
X190114906Y-91356788D01*
X190095877Y-91535892D01*
X189768966Y-91535892D01*
X189732718Y-91455477D01*
X189703433Y-91368365D01*
G37*
G36*
X185503034Y-99393669D02*
G01*
X185506272Y-99414131D01*
X185499923Y-99453721D01*
X185494610Y-99458640D01*
X185475477Y-99435437D01*
X185465868Y-99414131D01*
X185465251Y-99375922D01*
X185477530Y-99369621D01*
X185503034Y-99393669D01*
G37*
G36*
X192109729Y-93268177D02*
G01*
X192178964Y-93294707D01*
X192266814Y-93337785D01*
X192357702Y-93389517D01*
X192436051Y-93442014D01*
X192460553Y-93461597D01*
X192531079Y-93554024D01*
X192551295Y-93658732D01*
X192538748Y-93716934D01*
X192491989Y-93778281D01*
X192423987Y-93789817D01*
X192344465Y-93752356D01*
X192285717Y-93695722D01*
X192227223Y-93615737D01*
X192169314Y-93519556D01*
X192119156Y-93421772D01*
X192083917Y-93336976D01*
X192070766Y-93279761D01*
X192074683Y-93266086D01*
X192109729Y-93268177D01*
G37*
G36*
X190758374Y-91313430D02*
G01*
X190743538Y-91328266D01*
X190728702Y-91313430D01*
X190743538Y-91298593D01*
X190758374Y-91313430D01*
G37*
M02*
