G04 #@! TF.GenerationSoftware,KiCad,Pcbnew,(6.0.6-0)*
G04 #@! TF.CreationDate,2022-08-17T04:52:14+09:00*
G04 #@! TF.ProjectId,PENGO2JAMMA,50454e47-4f32-44a4-914d-4d412e6b6963,rev?*
G04 #@! TF.SameCoordinates,Original*
G04 #@! TF.FileFunction,Soldermask,Top*
G04 #@! TF.FilePolarity,Negative*
%FSLAX46Y46*%
G04 Gerber Fmt 4.6, Leading zero omitted, Abs format (unit mm)*
G04 Created by KiCad (PCBNEW (6.0.6-0)) date 2022-08-17 04:52:14*
%MOMM*%
%LPD*%
G01*
G04 APERTURE LIST*
%ADD10R,1.980000X9.900000*%
G04 APERTURE END LIST*
D10*
X88520000Y-116840000D03*
X92480000Y-116840000D03*
X96440000Y-116840000D03*
X100400000Y-116840000D03*
X104360000Y-116840000D03*
X108320000Y-116840000D03*
X112280000Y-116840000D03*
X116240000Y-116840000D03*
X120200000Y-116840000D03*
X124160000Y-116840000D03*
X128120000Y-116840000D03*
X132080000Y-116840000D03*
X136040000Y-116840000D03*
X140000000Y-116840000D03*
X143960000Y-116840000D03*
X147920000Y-116840000D03*
X151880000Y-116840000D03*
X155840000Y-116840000D03*
X159800000Y-116840000D03*
X163760000Y-116840000D03*
X167720000Y-116840000D03*
X171680000Y-116840000D03*
X175640000Y-116840000D03*
X179600000Y-116840000D03*
X183560000Y-116840000D03*
X187520000Y-116840000D03*
X191480000Y-116840000D03*
X195440000Y-116840000D03*
X88595000Y-87376000D03*
X92555000Y-87376000D03*
X96515000Y-87376000D03*
X100475000Y-87376000D03*
X104435000Y-87376000D03*
X108395000Y-87376000D03*
X112355000Y-87376000D03*
X116315000Y-87376000D03*
X120275000Y-87376000D03*
X124235000Y-87376000D03*
X128195000Y-87376000D03*
X132155000Y-87376000D03*
X136115000Y-87376000D03*
X140075000Y-87376000D03*
X144035000Y-87376000D03*
X147995000Y-87376000D03*
X151955000Y-87376000D03*
X155915000Y-87376000D03*
X159875000Y-87376000D03*
X163835000Y-87376000D03*
X167795000Y-87376000D03*
X171755000Y-87376000D03*
M02*
